<?xml version="1.0" encoding="utf-8"?>
<!-- Generator: Adobe Illustrator 25.0.0, SVG Export Plug-In . SVG Version: 6.00 Build 0)  -->
<svg version="1.1" id="katman_1" xmlns="http://www.w3.org/2000/svg" xmlns:xlink="http://www.w3.org/1999/xlink" x="0px" y="0px"
	 width="1003.9px" height="672.6px" viewBox="0 0 1003.9 672.6" style="enable-background:new 0 0 1003.9 672.6;"
	 xml:space="preserve">
<g>
	<g>
		<path d="M461.6,459c-2.7,15,1,28.8,9.9,41.6c3.1,4.5,5.5,9.6,7.7,14.7c4.4,10.2,2.3,21.2-5.1,28.7c-7.4,7.4-18.5,9.4-28.7,4.9
			c-5.4-2.4-10.4-5.6-14.7-9.8c-11.3-11.2-22.7-22.3-32.7-34.7c-3.9-4.9-7.4-10.1-10.4-15.7c-7.7-14.2-7-28.4,0.3-42.2
			c9.2-17.5,23.9-27.9,43.6-30.3c14.7-1.8,28.9,10,30,24.8C461.9,446.7,461.6,452.7,461.6,459z M415.4,449.3
			c-8.4-0.2-13.4,2.8-15.6,9.3c-2,5.8,0.1,12,5.8,16.6c2,1.6,4.1,3.3,6.5,4.2c6.5,2.4,13.2,4.4,19.9,6.6c3.5,1.1,5.7-0.5,7-3.6
			c2.9-7.1,6.3-14.1,7.7-21.8c1.6-8.6-1.7-16.9-8.2-19.8c-6.1-2.8-11.6-0.8-17.6,6.8C419.2,449.4,417.9,450.8,415.4,449.3z"/>
		<path d="M612.6,468.8c0.5,11-4.6,20.2-10.6,28.6c-12.3,17.3-27.6,31.8-43.3,45.9c-5.3,4.8-11.9,7.4-19.2,7.7
			c-19.7,0.9-29.3-18.6-25.1-32.1c2.4-7.8,6.5-14.9,11-21.7c8.1-12.3,11-25.6,8-40.1c-0.7-3.6-0.8-7.3-0.8-11
			c0.2-20.8,15.9-33.3,36.3-28.9C594.1,422.6,612.8,444.7,612.6,468.8z M548,457.7c0.1,0.9,0,2.8,0.6,4.5c1.1,3.5,2.3,7,3.7,10.4
			c7.6,17.7,2.9,14.6,21.8,9.8c6.4-1.7,12.7-4,17.3-9.1c4.4-4.9,5.6-11.1,3.1-16.3c-2.5-5.2-7.9-8.4-14.6-7.4
			c-3.3,0.5-4.3-0.3-6-2.7c-4.8-6.9-10.6-8.8-16.9-6.4C551,442.9,547.8,448.5,548,457.7z"/>
		<path d="M428.2,398c-0.2-7.8,6-15.5,12.6-15.7c6.5-0.2,13.1,7.4,13.2,15.2c0.1,8.1-5.8,15.4-12.6,15.6
			C434.6,413.2,428.4,406.1,428.2,398z"/>
		<path d="M566.3,398.7c-0.2,1.5-0.2,3.4-0.8,5.1c-1.7,4.7-4.8,8.3-10,9.2c-4.8,0.8-9.7-2.4-12.4-7.4c-2.2-4.2-2.3-8.5-1.3-12.9
			c1.4-6,7.5-10.8,12.6-10.4c6,0.5,11,5.9,11.7,12.7C566.2,396.1,566.2,397.2,566.3,398.7z"/>
		<path d="M421.2,407.1c-0.1,5.5-2.8,8.6-7.7,8.7c-6.1,0.2-12-6.3-12.1-13.3c-0.1-5.4,3.6-9.5,8.5-9.4
			C415.8,393.2,421.3,400.1,421.2,407.1z"/>
		<path d="M592.9,402.1c0,0.4,0,0.7,0,1.1c-0.4,6.9-4.6,12.1-10.2,12.6c-4.7,0.4-7.7-2-8.4-6.7c-1.1-7.4,2.9-14.2,9.1-15.8
			C589,391.9,592.9,395.5,592.9,402.1z"/>
		<path d="M399.5,421.6c0.1,4.8-2.5,8.3-6.5,8.7c-4.9,0.4-11.3-6.2-11.2-11.5c0.1-3.8,3.9-7.8,7.7-7.9
			C394.9,410.6,399.3,415.3,399.5,421.6z"/>
		<path d="M602.6,430.3c-4.4-0.3-8.1-4.5-7.7-9.1c0.4-5.7,5.5-10.6,10.9-10.4c4.3,0.2,6.9,3.3,6.9,8.2
			C612.6,424.5,607.2,430.6,602.6,430.3z"/>
		<path d="M616.4,445.4c-3.3,0.3-6.2-2.5-6.4-6.1c-0.3-5,2.8-8.5,7.8-8.8c4.1-0.3,7.5,2.5,7.5,6.3
			C625.3,440.3,620.4,445.1,616.4,445.4z"/>
		<path d="M385.4,439.3c-0.2,3.4-3,5.6-6.9,5.5c-5.5-0.1-9.1-4.1-8.4-9.2c0.5-3.5,3.2-5.5,7.2-5.1
			C381.8,431,385.7,435.3,385.4,439.3z"/>
		<path d="M622.6,450.7c4.2-0.1,7.1,2,7.2,5c0.1,3.2-3.4,6.5-7.1,6.8c-4.5,0.3-7.8-2.2-7.6-5.7C615.1,453.3,618.3,450.8,622.6,450.7
			z"/>
		<path d="M379.4,457.7c-0.2,3.4-2.8,5.1-7.1,4.7c-4.4-0.4-7.1-3.2-6.6-6.9c0.4-3.3,3.1-5.1,7.2-4.9
			C377.2,451,379.6,453.6,379.4,457.7z"/>
	</g>
	<g>
		<path d="M540.6,148.7c3.7,0,6.6-2.6,6.6-5.8c0-3.2-3.5-7.1-7.4-7.1c-3.7,0-6.8,3-6.8,6.3C533.1,145.9,536.9,148.7,540.6,148.7z"/>
		<path d="M719.6,177.8c-4.2,0-6.3,1.1-10.5,8c-9.2,15.9-23,28-24.5,28l-0.2-0.2c0-7.8,6.1-37.3,6.1-41.3c0-3-3.5-5.6-9.6-5.6
			c-1.5,0-3.1,2.1-4.2,5.2c-3.1-3-6.8-5.4-12.7-5.4c-16,0-28.9,12.4-35.1,26.4c-6.1,10.5-13.3,23-17.7,23c-0.9,0-3.7-0.9-3.7-7.5
			c0-9.9,4.6-20.5,4.6-29.7c0-11-8.5-11.2-9.4-11.2c-12.5,0-27.4,23.5-28,23.5l3.5-20.7c0-3.7-2.8-6.5-6.8-6.5
			c-2.2,0-2.8,0.4-4.6,1.7c-1.7,1.4-3.4,7.3-4.7,14.7c-2.3,2.6-4.8,7.5-10.4,16.3c-8.3,12.9-15.5,20.2-18.6,20.2
			c-2.4,0-3.9-6.7-3.9-10.1c0-14,8.1-31,8.1-34.9c0-3.4-3.3-5.8-7-5.8c-2.4,0-3.9,1.1-5.9,2.2c-2.6,4.2-4.7,8.3-6.2,12.3
			c-1.7,2.1-4,5.6-7.8,11.8c-2.8,4.5-14.7,23.7-21.4,23.7c-0.7,0-1.1-1.1-1.1-3.5c0-11.4,5-23.2,5-35.3c0-5.2-2.6-9.7-11.4-9.7
			c-9.2,0-25.4,19-26,19c0-2.1,1.5-6.7,1.5-11.8c0-8.2-4.6-8.6-8.1-8.6h-1.3c-15.3,0-27.1,23.9-28.2,23.9c0,0-0.2,0-0.2-0.2
			c0-0.9,0.3-2.9,0.7-5.1c0.1-0.3,0.2-0.6,0.2-0.9c0-0.1,0-0.1,0-0.2c0.8-4.3,1.8-9.5,1.8-11.4c0-3.2-3.1-5.4-7-5.4
			c-4.9,0-6.6,0.1-8.9,14.9c-0.7,0.7-1.5,1.5-2.5,2.4c-10.9,10.8-14.9,11-15.1,11c-0.2,0-0.2-0.2-0.2-0.2c0-2.2,1.8-5.8,1.8-14.4
			c0-12.9-6.8-19.2-15.5-19.2c-8.8,0-14.2,7.1-14.2,7.3c0,0-1.3,0.2-2.8,0.2c-4.4,0-9.2,5.7-12.8,13.6c-6.8,9.3-23.4,34.2-39.9,34.2
			c-9.6,0-12.9-5.8-12.9-12.7c0-11,8.3-25.4,14-25.4c2.4,0,2.8,7.8,10.1,7.8c6.1,0,6.6-5.2,6.6-6c0-2.4-4.6-13.8-16.4-13.8
			c-15.3,0-28.2,20-28.2,37.2c0,13.3,7.4,24.8,27.1,24.8c13.1,0,25-8.2,34.3-17.7c0.9,9.8,5.8,17.3,17.1,17.3
			c16.2,0,25.6-17.7,26.5-18.7l3.5-0.7c6.2-1.3,12.1-4.1,17.1-7.5c-0.6,4.9-1.3,10.4-2,16.8l-0.2,2.4c0,6.9,3.9,7.8,6.6,7.8l2.4-0.2
			c8.5,0,24.7-43.5,31.3-43.5v0.2c0,0-7.2,27.1-7.2,36c0,4.7,7,7.7,9.8,7.7c3.5,0,6.8-2.4,6.8-6c0-4.5,23-41.1,28-41.1
			c0,3.4-4.8,19.2-4.8,30.1c0,16.6,12.7,16.8,14.2,16.8c9.8,0,19.2-8.6,26.7-18.3c2.4,11.5,9.7,18.5,17.5,18.5
			c6.2,0,13.5-1.1,25.7-17.3c-0.4,3.8-0.6,6.5-0.6,7.2c0,2.4,1.8,7.7,5.9,9c0.9,0.4,1.8,0.6,2.4,0.6c3.3,0,5.3-1.9,7.4-6.5
			c5.7-14.2,22.8-36.6,23.9-36.6c0,2.6-3.5,13.4-3.5,23.9c0,13.8,10.5,19.2,17.5,19.2c5.5,0,11-3.5,15.9-8.6
			c3.8,7.7,12.3,8.6,15.4,8.6c12.5,0,20.8-13.4,29.1-26.7c-1.1,7.3-2,14.4-3.1,20.2c-23.9,10.6-39.2,23-39.2,37.7
			c0,11,7.9,15.5,14.4,15.5c30.2,0,32.2-42.9,40.5-46.5c24.3-10.5,42.2-41.8,42.2-44.6C726.4,182.7,725.5,177.8,719.6,177.8z
			 M355.9,216.1c-2.4,0-3.1-3.4-3.1-7.5c0-5.4,1.3-11.9,2-11.9c0.4,0,1.1,0.9,2,2.2c4.4,6.7,10.9,8.6,10.9,9.3
			C367.7,209.2,360.2,216.1,355.9,216.1z M372.3,195.9c-0.7,0-5-3.2-5-9.5c0-6.2,5.3-12.3,6.3-12.3c1.3,0,2,3,2,6.7
			C375.6,186.8,373.6,195.9,372.3,195.9z M641.7,216.1c-2,0-2.6-2.4-2.6-5.2c0-3.7,0.7-7.5,2-11c1.9-3.4,3.6-6.7,4.9-9.3
			c5-7.1,11.9-12,17.8-12c1.8,0,4.2,4.1,4.2,4.3S647.6,216.1,641.7,216.1z M644.7,263.2c-0.9,0-2-2.2-2-4.1c0-8,18.4-21.1,20.4-21.1
			l0.2,0.2C663.4,247.3,649.3,263.2,644.7,263.2z"/>
		<path d="M380.9,296.5c-3.5-3.8-6-8.1-7.3-12.8c-1.6-5.3-0.9-10.3,2.2-15.1c1.2-1.6,2.9-2.6,4.9-3c2-0.4,3.8,0.5,5.4,2.5
			c0.5,0.8,1.2,1.3,2.2,1.5c2.6,0.3,4.1-0.7,4.5-2.9c0.2-1,0-1.9-0.4-2.7c-0.4-0.8-1-1.5-1.7-2.3c-2.7-2.5-6.3-3.8-10.7-3.8
			c-4.4,0-8.2,1.3-11.3,3.9c-6.4,5.6-9.2,12.2-8.6,19.9c0.8,7.5,3.9,14.2,9.3,20.2c5,5.6,9.2,11.7,12.5,18.2
			c3.2,6.3,5.3,12.9,6.2,19.7c0.5,4.2-0.4,8.1-2.8,11.8c-0.7,1.1-1.8,1.8-3.3,2.1c-3.5,0.6-6.9,0.7-10.3,0.3c-2-0.1-3.5-0.9-4.5-2.5
			c-0.7-1.2-1.8-2.2-3.3-2.8c-2.9-1.2-5-0.4-6.2,2.3c-0.4,1.2-0.5,2.4-0.2,3.6c1.2,4.6,4.3,7.6,9.5,9.2c3.7,1.2,7.6,2.1,11.6,2.5
			c3.6,0.5,7.1,0.1,10.5-1.1c3.4-1.2,6-3.1,7.9-5.7c3.6-4.8,5.3-10.7,5.3-17.7c-0.1-3.8-0.9-8.2-2.5-13.2
			C395.9,316.9,389.6,306.2,380.9,296.5z"/>
		<path d="M457.5,266.7c-7-6-15.3-8.1-24.9-6.6c-2.4,0.3-4.3,1.3-5.8,3.1c-5,6.6-8.7,13.7-11.1,21.3c-3.5,11.1-5.2,22.6-5,34.5
			c-0.1,6.5,0.5,13.1,1.7,19.8c1.2,7,4.3,13.3,9.4,18.9c5.5,5.9,12.6,8.2,21.4,6.9c5-1,9.1-3.4,12.2-7.1c3.8-4.4,6.6-9.2,8.6-14.4
			c4.7-11.4,7.5-23.1,8.2-35.1c0.7-7.4,0-14.8-2.2-22.1C467.7,278.7,463.6,272.2,457.5,266.7z M451.9,336.4c-1.5,4.2-3.6,8.2-6.2,12
			c-0.2,0.2-0.3,0.4-0.5,0.6c-0.5,0.7-1.1,1.3-1.6,2c-2.6,2.6-5.5,3-8.9,1.2c-3.5-2.2-5.9-5.1-7.2-8.7c-1.9-4.5-2.9-9.1-3.2-13.9
			c-0.5-6.1-0.7-12.2-0.4-18.3c0.3-12.1,2.5-24,6.4-35.6c0.5-1.5,1.1-3,1.8-4.4c0.1-0.1,0.1-0.3,0.2-0.4c0.5-1.1,1.5-1.6,3.1-1.4
			c2.8,0.3,5.4,1.1,7.7,2.5c6.1,3.5,10.4,8.3,12.7,14.3c2.1,5.6,3.2,11.4,3.2,17.3C458.7,314.8,456.3,325.8,451.9,336.4z"/>
		<path d="M528.3,266.7c-7-6-15.3-8.1-24.9-6.6c-2.4,0.3-4.3,1.3-5.8,3.1c-5,6.6-8.7,13.7-11.1,21.3c-3.5,11.1-5.2,22.6-5,34.5
			c-0.1,6.5,0.5,13.1,1.7,19.8c1.2,7,4.3,13.3,9.4,18.9c5.5,5.9,12.6,8.2,21.4,6.9c5-1,9.1-3.4,12.2-7.1c3.8-4.4,6.6-9.2,8.6-14.4
			c4.7-11.4,7.5-23.1,8.2-35.1c0.7-7.4,0-14.8-2.2-22.1C538.6,278.7,534.4,272.2,528.3,266.7z M522.7,336.4c-1.5,4.2-3.6,8.2-6.2,12
			c-0.2,0.2-0.3,0.4-0.5,0.6c-0.5,0.7-1.1,1.3-1.6,2c-2.6,2.6-5.5,3-8.9,1.2c-3.5-2.2-5.9-5.1-7.2-8.7c-1.9-4.5-2.9-9.1-3.2-13.9
			c-0.5-6.1-0.7-12.2-0.4-18.3c0.3-12.1,2.5-24,6.4-35.6c0.5-1.5,1.1-3,1.8-4.4c0.1-0.1,0.1-0.3,0.2-0.4c0.5-1.1,1.5-1.6,3.1-1.4
			c2.8,0.3,5.4,1.1,7.7,2.5c6.1,3.5,10.4,8.3,12.7,14.3c2.1,5.6,3.2,11.4,3.2,17.3C529.6,314.8,527.2,325.8,522.7,336.4z"/>
		<path d="M598.7,337.2c-0.2-3.3-0.2-6.6-0.2-10c-0.1-3.3-0.2-6.6-0.3-10c-0.2-2.7-0.2-5.5-0.2-8.2c0.1-2.5,0-5-0.2-7.5
			c-0.1-0.9-0.1-1.8-0.1-2.8c-0.1-3-0.4-6.1-0.8-9.2c-0.9-5.6-1.6-11.3-2-16.9c-0.1-1.3-0.2-2.5-0.3-3.8c-0.3-2.5-0.5-4.9-0.6-7.4
			c-0.1-1.5-0.7-2.5-1.7-3.2c-1-0.7-2.3-0.9-3.8-0.6c-1,0.2-1.8,0.6-2.3,1.2c-0.5,0.6-0.9,1.3-1.2,2c-1,2.6-1.5,5.3-1.5,8.1
			c-0.2,5.5-0.4,10.9-0.6,16.4c-0.1,2.7-0.2,5.4-0.3,8.1c0,0,0,0.1,0,0.1c0.1,0.2,0,0.4,0,0.5c-0.1,0.2-0.3,0.4-0.6,0.7
			c-2.2-4.3-4.8-8.3-7.7-12.1c-1.3-1.7-2.5-3.5-3.8-5.2c-1.3-1.9-2.5-3.8-3.6-5.7c-0.2-0.2-0.3-0.4-0.4-0.6
			c-0.9-1.5-1.7-3.1-2.2-4.7c-0.6-1.6-0.7-3.2-0.4-5c0.1-0.3,0.1-0.6,0-0.8c-0.4-2.2-1.6-3.4-3.6-3.6c-2-0.1-3.5,0.8-4.3,2.9
			c-1.4,4.1-2.4,9.8-2.8,16.9c-0.5,7.1-0.7,12.7-0.8,16.7c-0.2,9,0.1,18,0.6,27c0.2,2.6,0.3,5.1,0.4,7.7c0.2,9.9,1.1,19.7,2.7,29.4
			c0.1,0.4,0.2,0.7,0.2,1c0.2,1.6,0.6,3.1,1.1,4.6c1.2,2.4,3.1,3.6,5.8,3.4c2.7-0.3,4.3-1.8,5-4.4c0.3-1,0.2-1.9-0.2-2.8
			c-0.4-0.9-0.5-1.8-0.5-2.8c0.2-5.5-0.1-10.9-0.6-16.3c-0.3-3.4-0.6-6.7-0.7-10.1c-0.3-6.2-0.6-12.4-1.1-18.5
			c-0.1-1.9-0.2-3.8-0.2-5.7c0-2.2-0.1-4.4-0.3-6.6c-0.4-2.9-0.3-6,0.2-9.2c0.2,0.1,0.3,0.3,0.5,0.3c0.3,0.2,0.4,0.3,0.5,0.5
			c2.3,3.4,4.9,6.7,7.5,9.9c1.4,1.8,2.8,3.6,4.2,5.4c0.1,0.1,0.1,0.2,0.2,0.3c0.9,1.5,2.1,2.6,3.8,3.5c0.4,0.2,0.6,0.4,0.8,0.7
			c0.1,0.3,0.2,0.6,0.2,1c-0.1,1.5,0,2.9,0.2,4.4c0.1,1.2,0.2,2.3,0.2,3.5c0,3.6,0.1,7.1,0.3,10.7c0.2,2.6,0.3,5.1,0.3,7.6
			c0.1,1,0.1,2.1,0.2,3.2c0.1,0.7,0.1,1.5,0.2,2.2c0.4,3.9,1.1,7.7,2,11.5c0.7,3,1.3,6,1.8,9c0.2,1.7,0.7,3.3,1.8,4.8
			c1.3,1.7,3.1,2.4,5.3,2.1c2.5-0.5,3.8-1.8,4.2-4c0.1-0.4,0.1-0.8,0-1.2c0-0.2,0-0.3,0-0.5c0-0.6,0-1.3-0.1-2
			c-0.2-2-0.2-3.9-0.2-5.9C599.1,350.7,599.1,343.9,598.7,337.2z"/>
	</g>
</g>
</svg>
