<svg id="Capa_1" enable-background="new 0 0 512.28 512.28" height="512" viewBox="0 0 512.28 512.28" width="512" xmlns="http://www.w3.org/2000/svg"><g><g><path d="m136.14 242c-41.367 0-75-33.647-75-75s33.633-75 75-75 75 33.647 75 75-33.633 75-75 75z" fill="#f3f5f9"/></g><g><path d="m376.14 242c-41.367 0-75-33.647-75-75s33.633-75 75-75 75 33.647 75 75-33.633 75-75 75z" fill="#e1e6f0"/></g><g id="Oops_2_"><g><path d="m136.14 182c-24.814 0-45-20.186-45-45s20.186-45 45-45 45 20.186 45 45-20.186 45-45 45z" fill="#596c76"/></g><g><path d="m376.14 182c-24.814 0-45-20.186-45-45s20.186-45 45-45 45 20.186 45 45-20.186 45-45 45z" fill="#465a61"/></g><g><path d="m331.14 332h-30v-15c0-24.814-20.186-45-45-45s-45 20.186-45 45v15h-30v-15c0-41.353 33.633-75 75-75s75 33.647 75 75z" fill="#596c76"/></g><g><path d="m76.14 362c-24.814 0-45 20.186-45 45v60c0 24.814 20.186 45 45 45s45-20.186 45-45v-60c0-24.814-20.186-45-45-45zm15 105c0 8.276-6.738 15-15 15s-15-6.724-15-15v-60c0-8.276 6.738-15 15-15s15 6.724 15 15z" fill="#ec4c36"/><path d="m196.14 362c-24.814 0-45 20.186-45 45v60c0 24.814 20.186 45 45 45s45-20.186 45-45v-60c0-24.814-20.186-45-45-45zm15 105c0 8.276-6.738 15-15 15s-15-6.724-15-15v-60c0-8.276 6.738-15 15-15s15 6.724 15 15z" fill="#ec4c36"/><g fill="#e62e2e"><path d="m316.14 362h-45c0 11.515 0 157.508 0 150h30v-60h15c24.814 0 45-20.186 45-45s-20.186-45-45-45zm0 60h-15v-30h15c8.262 0 15 6.724 15 15s-6.738 15-15 15z"/><path d="m436.14 422c-8.262 0-15-6.724-15-15 0-12.29 16.992-19.263 25.576-10.62l10.606 10.62 21.24-21.182-10.576-10.62c-8.496-8.51-19.805-13.198-31.846-13.198-24.814 0-45 20.186-45 45s20.186 45 45 45c8.262 0 15 6.724 15 15 0 12.29-16.963 19.248-25.576 10.62l-10.606-10.62-21.24 21.182 10.576 10.62c8.496 8.511 19.805 13.198 31.846 13.198 24.814 0 45-20.186 45-45s-20.186-45-45-45z"/></g></g><g><path d="m136.14 92h-75v-30h75c24.814 0 45-20.186 45-45v-17h30v17c0 41.353-33.633 75-75 75z" fill="#596c76"/></g><g><path d="m451.14 92h-75c-41.367 0-75-33.647-75-75v-17h30v17c0 24.814 20.186 45 45 45h75z" fill="#465a61"/></g></g><path d="m301.14 317v15h30v-15c0-41.353-33.633-75-75-75v30c24.814 0 45 20.186 45 45z" fill="#465a61"/></g></svg>